<!-- icon666.com - MILLIONS OF FREE VECTOR ICONS --><svg viewBox="0 0 128 128" xmlns="http://www.w3.org/2000/svg"><g><g><path d="m19.846 17.228h88.307v93.545h-88.307z" fill="#3ba9fd" style="fill: rgb(179, 181, 183);"></path><path d="m58 28.667h12v7.833h-12z" fill="#385b60" style="fill: rgb(107, 107, 107);"></path><path d="m47.147 21.574 2.603 8.926h28.5l2.603-8.926z" fill="#537980" style="fill: rgb(95, 89, 89);"></path><g fill="#537980"><path d="m24.192 113.875h9v7.625h-9z" fill="#537980" style="fill: rgb(95, 89, 89);"></path><path d="m94.808 113.875h9v7.625h-9z" fill="#537980" style="fill: rgb(95, 89, 89);"></path></g><path d="m18.346 6.5h91.308a3 3 0 0 1 3 3v9a6 6 0 0 1 -6 6h-85.308a6 6 0 0 1 -6-6v-9a3 3 0 0 1 3-3z" fill="#0e8bce" style="fill: rgb(106, 107, 108);"></path><path d="m18.346 103.5h91.308a3 3 0 0 1 3 3v3a6 6 0 0 1 -6 6h-85.308a6 6 0 0 1 -6-6v-3a3 3 0 0 1 3-3z" fill="#0e8bce" transform="matrix(-1 0 0 -1 128 219)" style="fill: rgb(106, 107, 108);"></path><g fill="#efeffb"><g><circle cx="27" cy="15.5" r="3" fill="#000000"></circle><circle cx="39" cy="15.5" r="3" fill="#000000"></circle></g><g><circle cx="89" cy="15.5" r="3" fill="#000000"></circle><circle cx="101" cy="15.5" r="3" fill="#000000"></circle></g><path d="m74.185 103.5h-20.37a12 12 0 0 1 -11.915-13.452l3.548-29.1h37.1l3.548 29.1a12 12 0 0 1 -11.911 13.452z" fill="#efeffb"></path></g><path d="m74.18 103.5h-20.36a12 12 0 0 1 -11.92-13.45l1.71-14.03c4.32 1.04 5.69 3.53 12.17 3.53 8.22 0 8.22-4 16.44-4 6.66 0 7.93 2.63 12.55 3.62l1.33 10.88a12 12 0 0 1 -11.92 13.45z" fill="#663325"></path><path d="m82.316 60.952 1.911-9.643-42.863-2.934 4.087 12.577z" fill="#efeffb"></path><path d="m88.126 71.774-2.263-5.9a3 3 0 0 0 -2.8-1.925h-38.7a3 3 0 0 1 -3-3 3 3 0 0 1 3-3h38.7a9 9 0 0 1 8.4 5.775l2.263 5.9a3 3 0 0 1 -1.726 3.876 3 3 0 0 1 -3.874-1.726z" fill="#dfdfe5"></path></g><g fill="#2d0703"><path d="m19.85 61.813a1.751 1.751 0 0 0 1.75-1.75v-4.717a1.75 1.75 0 0 0 -3.5 0v4.717a1.75 1.75 0 0 0 1.75 1.75z" fill="#2d0703"></path><path d="m114.4 18.5v-9a4.756 4.756 0 0 0 -4.75-4.75h-91.304a4.756 4.756 0 0 0 -4.746 4.75v9a7.753 7.753 0 0 0 4.5 7.028v23.472a1.75 1.75 0 0 0 3.5 0v-22.75h25.088l1.382 4.74a1.751 1.751 0 0 0 1.68 1.26h6.5v4.25a1.75 1.75 0 0 0 1.75 1.75h4.25v2.25a1.75 1.75 0 0 0 3.5 0v-2.25h4.25a1.75 1.75 0 0 0 1.75-1.75v-4.25h6.5a1.751 1.751 0 0 0 1.68-1.26l1.382-4.74h25.088v75.5h-4.65a1.75 1.75 0 0 0 0 3.5h4.9a4.255 4.255 0 0 1 4.25 4.25v3a1.251 1.251 0 0 1 -1.25 1.25h-91.304a1.251 1.251 0 0 1 -1.25-1.25v-3a4.255 4.255 0 0 1 4.25-4.25h71.071a1.75 1.75 0 0 0 0-3.5h-9.076a13.637 13.637 0 0 0 4.5-11.912l-2.491-20.415 1.142 2.977a4.75 4.75 0 1 0 8.869-3.4l-2.261-5.9a10.816 10.816 0 0 0 -8.093-6.71l.942-4.739a1.751 1.751 0 0 0 -1.6-2.087l-42.871-2.93a1.75 1.75 0 0 0 -1.778 2.286l2.537 7.81a4.718 4.718 0 0 0 .893 8.788l-2.963 24.32a13.637 13.637 0 0 0 4.5 11.912h-23.067v-35.924a1.75 1.75 0 0 0 -3.5 0v36.646a7.753 7.753 0 0 0 -4.5 7.028v3a4.756 4.756 0 0 0 4.75 4.75h4.09v4.25a1.751 1.751 0 0 0 1.75 1.75h9a1.75 1.75 0 0 0 1.75-1.75v-4.25h58.12v4.25a1.75 1.75 0 0 0 1.75 1.75h9a1.751 1.751 0 0 0 1.75-1.75v-4.25h4.094a4.756 4.756 0 0 0 4.75-4.75v-3a7.753 7.753 0 0 0 -4.5-7.028v-76.944a7.753 7.753 0 0 0 4.496-7.028zm-32.274 34.42-.653 3.28h-35.731l-1.917-5.9zm-37.763 6.78h38.7a7.291 7.291 0 0 1 6.768 4.652l2.264 5.9a1.251 1.251 0 0 1 -1.676 1.591 1.239 1.239 0 0 1 -.658-.694l-2.261-5.899a4.779 4.779 0 0 0 -4.438-3.05h-9.479a1.75 1.75 0 0 0 0 3.5h7.787l1.336 10.965c-.51-.218-1-.451-1.5-.694a18.072 18.072 0 0 0 -8.986-2.171 18.042 18.042 0 0 0 -8.986 2.176 14.481 14.481 0 0 1 -7.454 1.824 14.487 14.487 0 0 1 -7.443-1.818 25.41 25.41 0 0 0 -2.812-1.213l1.105-9.069h16.17a1.75 1.75 0 1 0 0-3.5h-18.437a1.25 1.25 0 0 1 0-2.5zm1.776 38.592a10.249 10.249 0 0 1 -2.5-8.033l1.451-11.919c.59.243 1.146.513 1.718.79a18.037 18.037 0 0 0 8.972 2.17 18.042 18.042 0 0 0 8.986-2.176 14.481 14.481 0 0 1 7.454-1.824 14.518 14.518 0 0 1 7.454 1.822 22.475 22.475 0 0 0 3.507 1.44l1.181 9.7a10.252 10.252 0 0 1 -10.182 11.488h-20.36a10.267 10.267 0 0 1 -7.681-3.456zm-14.699 21.458h-5.5v-2.5h5.5zm70.62 0h-5.5v-2.5h5.5zm-84.96-110.25a1.251 1.251 0 0 1 1.25-1.25h91.308a1.251 1.251 0 0 1 1.242 1.25v9a4.255 4.255 0 0 1 -4.25 4.25h-85.304a4.255 4.255 0 0 1 -4.246-4.25zm51.15 25.25h-8.5v-2.5h8.5zm8.687-6h-25.875l-.729-2.5h27.334z" fill="#2d0703"></path><path d="m27 20.25a4.75 4.75 0 1 0 -4.75-4.75 4.756 4.756 0 0 0 4.75 4.75zm0-6a1.25 1.25 0 1 1 -1.25 1.25 1.252 1.252 0 0 1 1.25-1.25z" fill="#2d0703"></path><path d="m39 20.25a4.75 4.75 0 1 0 -4.75-4.75 4.756 4.756 0 0 0 4.75 4.75zm0-6a1.25 1.25 0 1 1 -1.25 1.25 1.252 1.252 0 0 1 1.25-1.25z" fill="#2d0703"></path><path d="m89 20.25a4.75 4.75 0 1 0 -4.75-4.75 4.756 4.756 0 0 0 4.75 4.75zm0-6a1.25 1.25 0 1 1 -1.25 1.25 1.252 1.252 0 0 1 1.25-1.25z" fill="#2d0703"></path><path d="m101 20.25a4.75 4.75 0 1 0 -4.75-4.75 4.756 4.756 0 0 0 4.75 4.75zm0-6a1.25 1.25 0 1 1 -1.25 1.25 1.252 1.252 0 0 1 1.25-1.25z" fill="#2d0703"></path><path d="m58 17.25h12a1.75 1.75 0 0 0 0-3.5h-12a1.75 1.75 0 0 0 0 3.5z" fill="#2d0703"></path><path d="m78.679 97.226a1.742 1.742 0 0 0 1.31-.59 7.648 7.648 0 0 0 1.892-6.07 1.75 1.75 0 0 0 -3.475.423 4.192 4.192 0 0 1 -1.036 3.327 1.75 1.75 0 0 0 1.309 2.91z" fill="#2d0703"></path></g></g></svg>