<!-- icon666.com - MILLIONS OF FREE VECTOR ICONS --><svg version="1.1" id="Capa_1" xmlns="http://www.w3.org/2000/svg" xmlns:xlink="http://www.w3.org/1999/xlink" x="0px" y="0px" viewBox="0 0 480 480" style="enable-background:new 0 0 480 480;" xml:space="preserve"><path style="fill:#D4C8B8;" d="M343.159,406.992l-7.773-13.984l66.035-36.688l-27.445-75.48l-49.57,7.078l-2.266-15.836l56-8 c3.766-0.551,7.355,1.625,8.652,5.184l32,88c1.344,3.695-0.199,7.82-3.633,9.727L343.159,406.992z"></path><path style="fill:#EBE5DD;" d="M219.112,372.24l16.16-28.24l16.16,28.24c1.68,2.96,2.48,6.08,2.48,9.12c0,3.84-1.28,7.6-3.36,10.64 h86.054l-21.333-160l24-24h-208l24,24l-21.333,160h86.054C216.152,386.48,215.272,378.88,219.112,372.24z"></path><path style="fill:#D4C8B8;" d="M157.616,165.656L68.42,76.461c-7.59-7.59-9.754-18.465-5.645-28.383 C66.881,38.16,76.104,32,86.838,32h52.434v16H86.838c-6.23,0-8.68,4.746-9.281,6.203c-0.602,1.453-2.227,6.543,2.176,10.945 l89.195,89.195L157.616,165.656z"></path><polygon style="fill:#BDB2A4;" points="171.272,208 299.272,208 313.672,136 156.872,136 "></polygon><polygon style="fill:#EBE5DD;" points="339.272,8 131.272,8 144.072,72 326.472,72 "></polygon><g><polygon style="fill:#D4C8B8;" points="144.072,72 156.872,136 313.672,136 326.472,72 "></polygon><rect x="107.272" y="200" style="fill:#D4C8B8;" width="256" height="16"></rect></g><g><rect x="179.272" y="24" style="fill:#FFFFFF;" width="16" height="16"></rect><rect x="179.272" y="56" style="fill:#FFFFFF;" width="16" height="112"></rect></g><polygon style="fill:#BDB2A4;" points="299.086,217.112 168.951,216.815 147.272,392 323.272,392 "></polygon><g><path style="fill:#884D00;" d="M250.552,392c2.08-3.04,3.36-6.8,3.36-10.64c0-3.04-0.8-6.16-2.48-9.12L235.272,344l-16.16,28.24 c-3.84,6.64-2.96,14.24,0.88,19.76h-86.054l-10.667,80h224l-10.667-80H250.552z"></path><path style="fill:#884D00;" d="M235.272,248l-16.124,28.216c-7.074,12.38,1.865,27.784,16.124,27.784h0 c14.259,0,23.198-15.404,16.124-27.784L235.272,248z"></path></g><polygon style="fill:#693B00;" points="331.272,448 139.272,448 147.272,392 323.272,392 "></polygon><g><rect x="179.272" y="280" style="fill:#FFFFFF;" width="16" height="144"></rect><rect x="179.272" y="248" style="fill:#FFFFFF;" width="16" height="16"></rect></g><path d="M418.791,357.266l-32-88c-1.297-3.559-4.887-5.734-8.652-5.184l-49.574,7.082l-4.84-36.301L342.585,216h20.687v-16h-24 H309.03L347.116,9.57c0.473-2.352-0.137-4.789-1.656-6.641C343.94,1.074,341.67,0,339.272,0h-208c-2.398,0-4.668,1.074-6.188,2.93 c-1.52,1.852-2.129,4.289-1.656,6.641L127.914,32H86.838c-10.734,0-19.957,6.16-24.063,16.078 c-4.109,9.918-1.945,20.793,5.645,28.383l85.482,85.482L161.514,200h-30.242h-24v16h20.687l18.86,18.863l-31.477,236.078 c-0.305,2.289,0.391,4.594,1.91,6.328c1.519,1.734,3.715,2.73,6.02,2.73h224c2.305,0,4.5-0.996,6.02-2.73 c1.52-1.734,2.215-4.039,1.91-6.328l-8.769-65.768l68.726-38.181C418.592,365.086,420.135,360.961,418.791,357.266z M153.83,80 h162.884l-9.6,48H163.43L153.83,80z M329.514,16l-9.6,48H150.63l-9.6-48H329.514z M79.733,65.148 c-4.402-4.402-2.777-9.492-2.176-10.945C78.159,52.746,80.608,48,86.838,48h44.276l17.132,85.662L79.733,65.148z M168.737,154.535 l0.191-0.191l-0.286-0.286L166.63,144h137.283l-11.2,56H177.83L168.737,154.535z M160.928,226.344L150.584,216h20.688h128h20.688 l-10.344,10.344c-1.762,1.762-2.602,4.242-2.273,6.715L327.468,384h-65.692c0.09-0.879,0.137-1.762,0.137-2.641 c0-4.488-1.219-9.008-3.535-13.094l-16.16-28.238c-2.852-4.984-11.039-4.984-13.891,0l-16.141,28.207 c-2.84,4.91-3.977,10.402-3.441,15.766h-65.669l20.126-150.941C163.53,230.586,162.69,228.105,160.928,226.344z M132.409,464 l8.534-64h79.048c2.98,0,5.711-1.656,7.09-4.297c1.379-2.637,1.18-5.828-0.523-8.273c-1.844-2.652-2.949-6.984-0.5-11.219 l9.215-16.105l9.203,16.082c0.953,1.68,1.438,3.422,1.438,5.172c0,2.066-0.715,4.301-1.965,6.125 c-1.672,2.449-1.855,5.625-0.469,8.25c1.383,2.625,4.105,4.266,7.074,4.266h79.048l8.534,64H132.409z M344.161,388.132 l-13.481-101.11l43.295-6.182l27.445,75.48L344.161,388.132z"></path><path d="M235.272,312c9.582,0,18.172-4.945,22.98-13.234c4.809-8.285,4.844-18.199,0.09-26.52l-16.125-28.215 c-2.852-4.984-11.039-4.984-13.891,0l-16.125,28.215c-4.754,8.32-4.719,18.234,0.09,26.52C217.1,307.055,225.69,312,235.272,312z M226.092,280.184l9.18-16.063l9.18,16.063c1.918,3.359,1.906,7.207-0.035,10.551c-3.891,6.695-14.398,6.695-18.289,0 C224.186,287.391,224.174,283.543,226.092,280.184z"></path></svg>