<?xml version="1.0" encoding="UTF-8"?>
<svg version="1.1" xmlns="http://www.w3.org/2000/svg" width="160" height="160">
<path d="M0 0 C13.38761554 10.2054998 22.11635922 21.60692182 24.93359375 38.5625 C28.46183052 75.23364179 -4.67903492 113.68260243 -25.47265625 141.09765625 C-26.59645811 142.61514665 -27.65177384 144.18273888 -28.69921875 145.75390625 C-29.35921875 145.75390625 -30.01921875 145.75390625 -30.69921875 145.75390625 C-31.92578125 144.43823242 -31.92578125 144.43823242 -33.32421875 142.546875 C-33.8567627 141.82902832 -34.38930664 141.11118164 -34.93798828 140.37158203 C-35.51919434 139.56962402 -36.10040039 138.76766602 -36.69921875 137.94140625 C-37.31007324 137.10335449 -37.92092773 136.26530273 -38.55029297 135.40185547 C-55.08461585 112.49514422 -72.31915248 88.60622411 -81.69921875 61.75390625 C-82.06917969 60.70074219 -82.43914062 59.64757812 -82.8203125 58.5625 C-86.66808844 45.71947896 -84.40406985 32.68868182 -78.69921875 20.75390625 C-71.0303957 7.64873974 -59.9501228 -1.65451132 -45.46875 -6.27734375 C-30.24060322 -10.20718808 -13.34820848 -8.95115157 0 0 Z M-59.13671875 28.69140625 C-63.34640861 36.94239838 -65.26355002 45.43471495 -63.0078125 54.546875 C-59.56466309 64.99157508 -53.58817698 72.58123413 -43.80859375 77.75390625 C-35.2591625 81.61973603 -27.03194761 81.69008747 -18.21875 78.79296875 C-8.15117276 74.64106868 -1.63597677 67.78510779 2.5390625 57.8671875 C5.67533819 49.16603289 4.9756732 40.19922397 1.30078125 31.75390625 C-3.77020741 23.01790398 -11.13153823 16.49166067 -20.77734375 13.4140625 C-36.99706777 9.74944571 -48.91875742 16.37745285 -59.13671875 28.69140625 Z " fill="currentColor" transform="translate(109.69921875,11.24609375)"/>
<path d="M0 0 C3.85429121 3.42603663 5.06108237 7.30682544 5.41796875 12.39453125 C5.06900909 20.60154543 1.37278741 27.01915748 -4.5 32.625 C-8.99406254 34.52633415 -12.94626319 34.94473491 -17.75 34 C-21.09625024 31.47323961 -22.42977847 29.96066458 -23.75 26 C-24.4823965 18.07039942 -23.26699852 11.95528339 -19 5.25 C-13.45733627 -0.29266373 -7.79455344 -2.83438307 0 0 Z M-8.125 12.25 C-8.99125 13.1575 -9.8575 14.065 -10.75 15 C-11.513125 15.639375 -12.27625 16.27875 -13.0625 16.9375 C-15.31582347 19.69156202 -15.06451714 21.54031142 -14.75 25 C-14.21375 24.2575 -13.6775 23.515 -13.125 22.75 C-10.75 20 -10.75 20 -7.5625 18.0625 C-4.44876167 16.2295684 -4.44876167 16.2295684 -3.875 12.75 C-3.83375 11.8425 -3.7925 10.935 -3.75 10 C-6.05327629 9.77075178 -6.05327629 9.77075178 -8.125 12.25 Z " fill="currentColor" transform="translate(97.75,46)"/>
<path d="M0 0 C3.43370673 1.9524999 6.35454877 4.06060974 9 7 C7.88798069 9.72950195 6.76691446 11.22695171 4.625 13.3125 C0.47396592 17.56236823 -1.96830717 22.41284473 -4 28 C-8.1115536 24.871644 -10.44584874 23.06565339 -12 18 C-12.62748253 12.51317603 -12.96848332 7.64642165 -10.125 2.8125 C-6.67064467 -0.1338619 -4.522504 -0.43485615 0 0 Z " fill="currentColor" transform="translate(74,35)"/>
</svg>
